<?xml version="1.0" encoding="UTF-8" standalone="no"?>
<!DOCTYPE svg PUBLIC "-//W3C//DTD SVG 1.1//EN"
 "http://www.w3.org/Graphics/SVG/1.1/DTD/svg11.dtd">
<!-- Generated by graphviz version 13.1.0 (20250701.0955)
 -->
<!-- Title: src/driver_mpu9250.c Pages: 1 -->
<svg width="303pt" height="140pt"
 viewBox="0.00 0.00 303.00 140.00" xmlns="http://www.w3.org/2000/svg" xmlns:xlink="http://www.w3.org/1999/xlink">
<g id="graph0" class="graph" transform="scale(1 1) rotate(0) translate(4 136)">
<title>src/driver_mpu9250.c</title>
<!-- Node1 -->
<g id="Node000001" class="node">
<title>Node1</title>
<g id="a_Node000001"><a xlink:title="driver mpu9250 source file">
<polygon fill="#999999" stroke="#666666" points="238.62,-132 128.88,-132 128.88,-112 238.62,-112 238.62,-132"/>
<text xml:space="preserve" text-anchor="middle" x="183.75" y="-118.5" font-family="Helvetica,sans-Serif" font-size="10.00">src/driver_mpu9250.c</text>
</a>
</g>
</g>
<!-- Node2 -->
<g id="Node000002" class="node">
<title>Node2</title>
<g id="a_Node000002"><a xlink:href="driver__mpu9250_8h.html" target="_top" xlink:title="driver mpu9250 header file">
<polygon fill="white" stroke="#666666" points="230.38,-76 137.12,-76 137.12,-56 230.38,-56 230.38,-76"/>
<text xml:space="preserve" text-anchor="middle" x="183.75" y="-62.5" font-family="Helvetica,sans-Serif" font-size="10.00">driver_mpu9250.h</text>
</a>
</g>
</g>
<!-- Node1&#45;&gt;Node2 -->
<g id="edge1_Node000001_Node000002" class="edge">
<title>Node1&#45;&gt;Node2</title>
<g id="a_edge1_Node000001_Node000002"><a xlink:title=" ">
<path fill="none" stroke="#63b8ff" d="M183.75,-111.59C183.75,-105.01 183.75,-95.96 183.75,-87.73"/>
<polygon fill="#63b8ff" stroke="#63b8ff" points="187.25,-87.81 183.75,-77.81 180.25,-87.81 187.25,-87.81"/>
</a>
</g>
</g>
<!-- Node6 -->
<g id="Node000006" class="node">
<title>Node6</title>
<g id="a_Node000006"><a xlink:href="driver__mpu9250__code_8h.html" target="_top" xlink:title="driver mpu9250 code header file">
<polygon fill="white" stroke="#666666" points="119.5,-76 0,-76 0,-56 119.5,-56 119.5,-76"/>
<text xml:space="preserve" text-anchor="middle" x="59.75" y="-62.5" font-family="Helvetica,sans-Serif" font-size="10.00">driver_mpu9250_code.h</text>
</a>
</g>
</g>
<!-- Node1&#45;&gt;Node6 -->
<g id="edge5_Node000001_Node000006" class="edge">
<title>Node1&#45;&gt;Node6</title>
<g id="a_edge5_Node000001_Node000006"><a xlink:title=" ">
<path fill="none" stroke="#63b8ff" d="M162.15,-111.59C142.8,-103.17 114.15,-90.69 92.07,-81.07"/>
<polygon fill="#63b8ff" stroke="#63b8ff" points="93.47,-77.87 82.91,-77.08 90.68,-84.29 93.47,-77.87"/>
</a>
</g>
</g>
<!-- Node7 -->
<g id="Node000007" class="node">
<title>Node7</title>
<g id="a_Node000007"><a xlink:title=" ">
<polygon fill="#e0e0e0" stroke="#999999" points="294.75,-76 248.75,-76 248.75,-56 294.75,-56 294.75,-76"/>
<text xml:space="preserve" text-anchor="middle" x="271.75" y="-62.5" font-family="Helvetica,sans-Serif" font-size="10.00">math.h</text>
</a>
</g>
</g>
<!-- Node1&#45;&gt;Node7 -->
<g id="edge9_Node000001_Node000007" class="edge">
<title>Node1&#45;&gt;Node7</title>
<g id="a_edge9_Node000001_Node000007"><a xlink:title=" ">
<path fill="none" stroke="#63b8ff" d="M199.08,-111.59C212.25,-103.51 231.48,-91.71 246.86,-82.27"/>
<polygon fill="#63b8ff" stroke="#63b8ff" points="248.32,-85.48 255.01,-77.27 244.66,-79.52 248.32,-85.48"/>
</a>
</g>
</g>
<!-- Node3 -->
<g id="Node000003" class="node">
<title>Node3</title>
<g id="a_Node000003"><a xlink:title=" ">
<polygon fill="#e0e0e0" stroke="#999999" points="79.38,-20 34.12,-20 34.12,0 79.38,0 79.38,-20"/>
<text xml:space="preserve" text-anchor="middle" x="56.75" y="-6.5" font-family="Helvetica,sans-Serif" font-size="10.00">stdio.h</text>
</a>
</g>
</g>
<!-- Node2&#45;&gt;Node3 -->
<g id="edge2_Node000002_Node000003" class="edge">
<title>Node2&#45;&gt;Node3</title>
<g id="a_edge2_Node000002_Node000003"><a xlink:title=" ">
<path fill="none" stroke="#63b8ff" d="M161.63,-55.59C141.72,-47.13 112.2,-34.58 89.54,-24.94"/>
<polygon fill="#63b8ff" stroke="#63b8ff" points="91.01,-21.76 80.44,-21.07 88.27,-28.21 91.01,-21.76"/>
</a>
</g>
</g>
<!-- Node4 -->
<g id="Node000004" class="node">
<title>Node4</title>
<g id="a_Node000004"><a xlink:title=" ">
<polygon fill="#e0e0e0" stroke="#999999" points="145.88,-20 97.62,-20 97.62,0 145.88,0 145.88,-20"/>
<text xml:space="preserve" text-anchor="middle" x="121.75" y="-6.5" font-family="Helvetica,sans-Serif" font-size="10.00">stdint.h</text>
</a>
</g>
</g>
<!-- Node2&#45;&gt;Node4 -->
<g id="edge3_Node000002_Node000004" class="edge">
<title>Node2&#45;&gt;Node4</title>
<g id="a_edge3_Node000002_Node000004"><a xlink:title=" ">
<path fill="none" stroke="#63b8ff" d="M172.95,-55.59C164.15,-47.93 151.5,-36.91 140.98,-27.75"/>
<polygon fill="#63b8ff" stroke="#63b8ff" points="143.41,-25.22 133.57,-21.29 138.81,-30.5 143.41,-25.22"/>
</a>
</g>
</g>
<!-- Node5 -->
<g id="Node000005" class="node">
<title>Node5</title>
<g id="a_Node000005"><a xlink:title=" ">
<polygon fill="#e0e0e0" stroke="#999999" points="211.88,-20 163.62,-20 163.62,0 211.88,0 211.88,-20"/>
<text xml:space="preserve" text-anchor="middle" x="187.75" y="-6.5" font-family="Helvetica,sans-Serif" font-size="10.00">string.h</text>
</a>
</g>
</g>
<!-- Node2&#45;&gt;Node5 -->
<g id="edge4_Node000002_Node000005" class="edge">
<title>Node2&#45;&gt;Node5</title>
<g id="a_edge4_Node000002_Node000005"><a xlink:title=" ">
<path fill="none" stroke="#63b8ff" d="M184.45,-55.59C184.93,-49.01 185.6,-39.96 186.21,-31.73"/>
<polygon fill="#63b8ff" stroke="#63b8ff" points="189.7,-32.04 186.95,-21.81 182.72,-31.52 189.7,-32.04"/>
</a>
</g>
</g>
<!-- Node6&#45;&gt;Node3 -->
<g id="edge6_Node000006_Node000003" class="edge">
<title>Node6&#45;&gt;Node3</title>
<g id="a_edge6_Node000006_Node000003"><a xlink:title=" ">
<path fill="none" stroke="#63b8ff" d="M59.23,-55.59C58.86,-49.01 58.36,-39.96 57.9,-31.73"/>
<polygon fill="#63b8ff" stroke="#63b8ff" points="61.4,-31.6 57.35,-21.81 54.41,-31.99 61.4,-31.6"/>
</a>
</g>
</g>
<!-- Node6&#45;&gt;Node4 -->
<g id="edge7_Node000006_Node000004" class="edge">
<title>Node6&#45;&gt;Node4</title>
<g id="a_edge7_Node000006_Node000004"><a xlink:title=" ">
<path fill="none" stroke="#63b8ff" d="M70.55,-55.59C79.35,-47.93 92,-36.91 102.52,-27.75"/>
<polygon fill="#63b8ff" stroke="#63b8ff" points="104.69,-30.5 109.93,-21.29 100.09,-25.22 104.69,-30.5"/>
</a>
</g>
</g>
<!-- Node6&#45;&gt;Node5 -->
<g id="edge8_Node000006_Node000005" class="edge">
<title>Node6&#45;&gt;Node5</title>
<g id="a_edge8_Node000006_Node000005"><a xlink:title=" ">
<path fill="none" stroke="#63b8ff" d="M82.05,-55.59C102.11,-47.13 131.87,-34.58 154.7,-24.94"/>
<polygon fill="#63b8ff" stroke="#63b8ff" points="156.03,-28.18 163.89,-21.07 153.31,-21.73 156.03,-28.18"/>
</a>
</g>
</g>
</g>
</svg>
