<?xml version="1.0" encoding="UTF-8" standalone="no"?>
<!DOCTYPE svg PUBLIC "-//W3C//DTD SVG 1.1//EN"
 "http://www.w3.org/Graphics/SVG/1.1/DTD/svg11.dtd">
<!-- Generated by graphviz version 13.1.0 (20250701.0955)
 -->
<!-- Title: mpu9250_basic_deinit Pages: 1 -->
<svg width="274pt" height="104pt"
 viewBox="0.00 0.00 274.00 104.00" xmlns="http://www.w3.org/2000/svg" xmlns:xlink="http://www.w3.org/1999/xlink">
<g id="graph0" class="graph" transform="scale(1 1) rotate(0) translate(4 100)">
<title>mpu9250_basic_deinit</title>
<!-- Node1 -->
<g id="Node000001" class="node">
<title>Node1</title>
<g id="a_Node000001"><a xlink:title="basic example deinit">
<polygon fill="#999999" stroke="#666666" points="112.75,-58 0,-58 0,-38 112.75,-38 112.75,-58"/>
<text xml:space="preserve" text-anchor="middle" x="56.38" y="-44.5" font-family="Helvetica,sans-Serif" font-size="10.00">mpu9250_basic_deinit</text>
</a>
</g>
</g>
<!-- Node2 -->
<g id="Node000002" class="node">
<title>Node2</title>
<g id="a_Node000002"><a xlink:href="group__mpu9250__basic__driver.html#ga91cfe80c70e7e102d6e5a1def3a2ee6e" target="_top" xlink:title="close the chip">
<polygon fill="white" stroke="#666666" points="249.5,-96 165.25,-96 165.25,-76 249.5,-76 249.5,-96"/>
<text xml:space="preserve" text-anchor="middle" x="207.38" y="-82.5" font-family="Helvetica,sans-Serif" font-size="10.00">mpu9250_deinit</text>
</a>
</g>
</g>
<!-- Node1&#45;&gt;Node2 -->
<g id="edge1_Node000001_Node000002" class="edge">
<title>Node1&#45;&gt;Node2</title>
<g id="a_edge1_Node000001_Node000002"><a xlink:title=" ">
<path fill="none" stroke="#63b8ff" d="M98.48,-58.48C115.75,-62.89 136.03,-68.06 154.31,-72.72"/>
<polygon fill="#63b8ff" stroke="#63b8ff" points="153.38,-76.1 163.93,-75.18 155.11,-69.31 153.38,-76.1"/>
</a>
</g>
</g>
<!-- Node3 -->
<g id="Node000003" class="node">
<title>Node3</title>
<g id="a_Node000003"><a xlink:href="group__mpu9250__basic__driver.html#ga6d1db8c9e247280524e95238a06f5453" target="_top" xlink:title="get the chip interface">
<polygon fill="white" stroke="#666666" points="266,-58 148.75,-58 148.75,-38 266,-38 266,-58"/>
<text xml:space="preserve" text-anchor="middle" x="207.38" y="-44.5" font-family="Helvetica,sans-Serif" font-size="10.00">mpu9250_get_interface</text>
</a>
</g>
</g>
<!-- Node1&#45;&gt;Node3 -->
<g id="edge2_Node000001_Node000003" class="edge">
<title>Node1&#45;&gt;Node3</title>
<g id="a_edge2_Node000001_Node000003"><a xlink:title=" ">
<path fill="none" stroke="#63b8ff" d="M112.86,-48C120.73,-48 128.91,-48 137,-48"/>
<polygon fill="#63b8ff" stroke="#63b8ff" points="136.84,-51.5 146.84,-48 136.84,-44.5 136.84,-51.5"/>
</a>
</g>
</g>
<!-- Node4 -->
<g id="Node000004" class="node">
<title>Node4</title>
<g id="a_Node000004"><a xlink:href="group__mpu9250__magnetometer__driver.html#gadfaea459024eaec362f46be757f9a2c7" target="_top" xlink:title="magnetometer deinit">
<polygon fill="white" stroke="#666666" points="261.5,-20 153.25,-20 153.25,0 261.5,0 261.5,-20"/>
<text xml:space="preserve" text-anchor="middle" x="207.38" y="-6.5" font-family="Helvetica,sans-Serif" font-size="10.00">mpu9250_mag_deinit</text>
</a>
</g>
</g>
<!-- Node1&#45;&gt;Node4 -->
<g id="edge3_Node000001_Node000004" class="edge">
<title>Node1&#45;&gt;Node4</title>
<g id="a_edge3_Node000001_Node000004"><a xlink:title=" ">
<path fill="none" stroke="#63b8ff" d="M98.48,-37.52C115.75,-33.11 136.03,-27.94 154.31,-23.28"/>
<polygon fill="#63b8ff" stroke="#63b8ff" points="155.11,-26.69 163.93,-20.82 153.38,-19.9 155.11,-26.69"/>
</a>
</g>
</g>
</g>
</svg>
