<?xml version="1.0" encoding="UTF-8" standalone="no"?>
<!DOCTYPE svg PUBLIC "-//W3C//DTD SVG 1.1//EN"
 "http://www.w3.org/Graphics/SVG/1.1/DTD/svg11.dtd">
<!-- Generated by graphviz version 13.1.0 (20250701.0955)
 -->
<!-- Title: mpu9250 driver function Pages: 1 -->
<svg width="288pt" height="390pt"
 viewBox="0.00 0.00 288.00 390.00" xmlns="http://www.w3.org/2000/svg" xmlns:xlink="http://www.w3.org/1999/xlink">
<g id="graph0" class="graph" transform="scale(1 1) rotate(0) translate(4 386)">
<title>mpu9250 driver function</title>
<!-- Node3 -->
<g id="Node000003" class="node">
<title>Node3</title>
<g id="a_Node000003"><a xlink:href="group__mpu9250__basic__driver.html" target="_top" xlink:title="mpu9250 basic driver modules">
<polygon fill="white" stroke="#666666" points="272.38,-382 163.38,-382 163.38,-350 272.38,-350 272.38,-382"/>
<text xml:space="preserve" text-anchor="start" x="171.38" y="-368.5" font-family="Helvetica,sans-Serif" font-size="10.00">mpu9250 basic driver</text>
<text xml:space="preserve" text-anchor="middle" x="217.88" y="-356.5" font-family="Helvetica,sans-Serif" font-size="10.00"> function</text>
</a>
</g>
</g>
<!-- Node4 -->
<g id="Node000004" class="node">
<title>Node4</title>
<g id="a_Node000004"><a xlink:href="group__mpu9250__dmp__driver.html" target="_top" xlink:title="mpu9250 dmp driver modules">
<polygon fill="white" stroke="#666666" points="270.12,-332 165.62,-332 165.62,-300 270.12,-300 270.12,-332"/>
<text xml:space="preserve" text-anchor="start" x="173.62" y="-318.5" font-family="Helvetica,sans-Serif" font-size="10.00">mpu9250 dmp driver</text>
<text xml:space="preserve" text-anchor="middle" x="217.88" y="-306.5" font-family="Helvetica,sans-Serif" font-size="10.00"> function</text>
</a>
</g>
</g>
<!-- Node1 -->
<g id="Node000001" class="node">
<title>Node1</title>
<g id="a_Node000001"><a xlink:title="mpu9250 driver modules">
<polygon fill="#999999" stroke="#666666" points="120.25,-201 0,-201 0,-181 120.25,-181 120.25,-201"/>
<text xml:space="preserve" text-anchor="middle" x="60.12" y="-187.5" font-family="Helvetica,sans-Serif" font-size="10.00">mpu9250 driver function</text>
</a>
</g>
</g>
<!-- Node1&#45;&gt;Node3 -->
<g id="edge2" class="edge">
<title>Node1&#45;&gt;Node3</title>
<path fill="none" stroke="black" d="M69.27,-211.54C82.84,-243.34 112.92,-304.62 156.25,-341 160.09,-344.22 164.4,-347.07 168.9,-349.59"/>
<polygon fill="black" stroke="black" points="72.65,-210.56 65.6,-202.66 66.18,-213.23 72.65,-210.56"/>
</g>
<!-- Node1&#45;&gt;Node4 -->
<g id="edge3" class="edge">
<title>Node1&#45;&gt;Node4</title>
<path fill="none" stroke="black" d="M75.54,-210.51C92.68,-232.56 123.17,-268.33 156.25,-291 160.85,-294.15 165.91,-297.02 171.09,-299.58"/>
<polygon fill="black" stroke="black" points="78.4,-208.48 69.56,-202.64 72.83,-212.72 78.4,-208.48"/>
</g>
<!-- Node8 -->
<g id="Node000008" class="node">
<title>Node8</title>
<g id="a_Node000008"><a xlink:href="group__mpu9250__example__driver.html" target="_top" xlink:title="mpu9250 example driver modules">
<polygon fill="white" stroke="#666666" points="279.12,-282 156.62,-282 156.62,-250 279.12,-250 279.12,-282"/>
<text xml:space="preserve" text-anchor="start" x="164.62" y="-268.5" font-family="Helvetica,sans-Serif" font-size="10.00">mpu9250 example driver</text>
<text xml:space="preserve" text-anchor="middle" x="217.88" y="-256.5" font-family="Helvetica,sans-Serif" font-size="10.00"> function</text>
</a>
</g>
</g>
<!-- Node1&#45;&gt;Node8 -->
<g id="edge7" class="edge">
<title>Node1&#45;&gt;Node8</title>
<path fill="none" stroke="black" d="M89.76,-206.94C108.46,-217.13 133.54,-230.38 156.25,-241 162.44,-243.89 169.05,-246.81 175.56,-249.57"/>
<polygon fill="black" stroke="black" points="91.59,-203.95 81.14,-202.21 88.23,-210.09 91.59,-203.95"/>
</g>
<!-- Node6 -->
<g id="Node000006" class="node">
<title>Node6</title>
<g id="a_Node000006"><a xlink:href="group__mpu9250__extern__driver.html" target="_top" xlink:title="mpu9250 extern driver modules">
<polygon fill="white" stroke="#666666" points="274.25,-232 161.5,-232 161.5,-200 274.25,-200 274.25,-232"/>
<text xml:space="preserve" text-anchor="start" x="169.5" y="-218.5" font-family="Helvetica,sans-Serif" font-size="10.00">mpu9250 extern driver</text>
<text xml:space="preserve" text-anchor="middle" x="217.88" y="-206.5" font-family="Helvetica,sans-Serif" font-size="10.00"> function</text>
</a>
</g>
</g>
<!-- Node1&#45;&gt;Node6 -->
<g id="edge5" class="edge">
<title>Node1&#45;&gt;Node6</title>
<path fill="none" stroke="black" d="M131.52,-202.3C141.42,-203.89 151.47,-205.5 161.05,-207.04"/>
<polygon fill="black" stroke="black" points="132.37,-198.89 121.95,-200.76 131.27,-205.8 132.37,-198.89"/>
</g>
<!-- Node7 -->
<g id="Node000007" class="node">
<title>Node7</title>
<g id="a_Node000007"><a xlink:href="group__mpu9250__interface__driver.html" target="_top" xlink:title="mpu9250 interface driver modules">
<polygon fill="white" stroke="#666666" points="279.5,-182 156.25,-182 156.25,-150 279.5,-150 279.5,-182"/>
<text xml:space="preserve" text-anchor="start" x="164.25" y="-168.5" font-family="Helvetica,sans-Serif" font-size="10.00">mpu9250 interface driver</text>
<text xml:space="preserve" text-anchor="middle" x="217.88" y="-156.5" font-family="Helvetica,sans-Serif" font-size="10.00"> function</text>
</a>
</g>
</g>
<!-- Node1&#45;&gt;Node7 -->
<g id="edge6" class="edge">
<title>Node1&#45;&gt;Node7</title>
<path fill="none" stroke="black" d="M131.75,-179.66C139.81,-178.37 147.98,-177.06 155.9,-175.79"/>
<polygon fill="black" stroke="black" points="131.27,-176.2 121.95,-181.24 132.37,-183.11 131.27,-176.2"/>
</g>
<!-- Node2 -->
<g id="Node000002" class="node">
<title>Node2</title>
<g id="a_Node000002"><a xlink:href="group__mpu9250__link__driver.html" target="_top" xlink:title="mpu9250 link driver modules">
<polygon fill="white" stroke="#666666" points="268.25,-132 167.5,-132 167.5,-100 268.25,-100 268.25,-132"/>
<text xml:space="preserve" text-anchor="start" x="175.5" y="-118.5" font-family="Helvetica,sans-Serif" font-size="10.00">mpu9250 link driver</text>
<text xml:space="preserve" text-anchor="middle" x="217.88" y="-106.5" font-family="Helvetica,sans-Serif" font-size="10.00"> function</text>
</a>
</g>
</g>
<!-- Node1&#45;&gt;Node2 -->
<g id="edge1" class="edge">
<title>Node1&#45;&gt;Node2</title>
<path fill="none" stroke="black" d="M89.76,-175.06C108.46,-164.87 133.54,-151.62 156.25,-141 162.44,-138.11 169.05,-135.19 175.56,-132.43"/>
<polygon fill="black" stroke="black" points="88.23,-171.91 81.14,-179.79 91.59,-178.05 88.23,-171.91"/>
</g>
<!-- Node5 -->
<g id="Node000005" class="node">
<title>Node5</title>
<g id="a_Node000005"><a xlink:href="group__mpu9250__magnetometer__driver.html" target="_top" xlink:title="mpu9250 magnetometer driver modules">
<polygon fill="white" stroke="#666666" points="278.38,-82 157.38,-82 157.38,-50 278.38,-50 278.38,-82"/>
<text xml:space="preserve" text-anchor="start" x="165.38" y="-68.5" font-family="Helvetica,sans-Serif" font-size="10.00">mpu9250 magnetometer</text>
<text xml:space="preserve" text-anchor="middle" x="217.88" y="-56.5" font-family="Helvetica,sans-Serif" font-size="10.00"> driver function</text>
</a>
</g>
</g>
<!-- Node1&#45;&gt;Node5 -->
<g id="edge4" class="edge">
<title>Node1&#45;&gt;Node5</title>
<path fill="none" stroke="black" d="M75.54,-171.49C92.68,-149.44 123.17,-113.67 156.25,-91 160.85,-87.85 165.91,-84.98 171.09,-82.42"/>
<polygon fill="black" stroke="black" points="72.83,-169.28 69.56,-179.36 78.4,-173.52 72.83,-169.28"/>
</g>
<!-- Node9 -->
<g id="Node000009" class="node">
<title>Node9</title>
<g id="a_Node000009"><a xlink:href="group__mpu9250__test__driver.html" target="_top" xlink:title="mpu9250 test driver modules">
<polygon fill="white" stroke="#666666" points="269,-32 166.75,-32 166.75,0 269,0 269,-32"/>
<text xml:space="preserve" text-anchor="start" x="174.75" y="-18.5" font-family="Helvetica,sans-Serif" font-size="10.00">mpu9250 test driver</text>
<text xml:space="preserve" text-anchor="middle" x="217.88" y="-6.5" font-family="Helvetica,sans-Serif" font-size="10.00"> function</text>
</a>
</g>
</g>
<!-- Node1&#45;&gt;Node9 -->
<g id="edge8" class="edge">
<title>Node1&#45;&gt;Node9</title>
<path fill="none" stroke="black" d="M69.27,-170.46C82.84,-138.66 112.92,-77.38 156.25,-41 160.09,-37.78 164.4,-34.93 168.9,-32.41"/>
<polygon fill="black" stroke="black" points="66.18,-168.77 65.6,-179.34 72.65,-171.44 66.18,-168.77"/>
</g>
</g>
</svg>
