<?xml version="1.0" encoding="UTF-8" standalone="no"?>
<!DOCTYPE svg PUBLIC "-//W3C//DTD SVG 1.1//EN"
 "http://www.w3.org/Graphics/SVG/1.1/DTD/svg11.dtd">
<!-- Generated by graphviz version 13.1.0 (20250701.0955)
 -->
<!-- Title: mpu9250_fifo_deinit Pages: 1 -->
<svg width="264pt" height="142pt"
 viewBox="0.00 0.00 264.00 142.00" xmlns="http://www.w3.org/2000/svg" xmlns:xlink="http://www.w3.org/1999/xlink">
<g id="graph0" class="graph" transform="scale(1 1) rotate(0) translate(4 138)">
<title>mpu9250_fifo_deinit</title>
<!-- Node1 -->
<g id="Node000001" class="node">
<title>Node1</title>
<g id="a_Node000001"><a xlink:title="fifo example deinit">
<polygon fill="#999999" stroke="#666666" points="103,-77 0,-77 0,-57 103,-57 103,-77"/>
<text xml:space="preserve" text-anchor="middle" x="51.5" y="-63.5" font-family="Helvetica,sans-Serif" font-size="10.00">mpu9250_fifo_deinit</text>
</a>
</g>
</g>
<!-- Node2 -->
<g id="Node000002" class="node">
<title>Node2</title>
<g id="a_Node000002"><a xlink:href="group__mpu9250__basic__driver.html#ga91cfe80c70e7e102d6e5a1def3a2ee6e" target="_top" xlink:title="close the chip">
<polygon fill="white" stroke="#666666" points="239.75,-134 155.5,-134 155.5,-114 239.75,-114 239.75,-134"/>
<text xml:space="preserve" text-anchor="middle" x="197.62" y="-120.5" font-family="Helvetica,sans-Serif" font-size="10.00">mpu9250_deinit</text>
</a>
</g>
</g>
<!-- Node1&#45;&gt;Node2 -->
<g id="edge1_Node000001_Node000002" class="edge">
<title>Node1&#45;&gt;Node2</title>
<g id="a_edge1_Node000001_Node000002"><a xlink:title=" ">
<path fill="none" stroke="#63b8ff" d="M74.66,-77.43C91.99,-85.42 116.79,-96.48 139,-105 143.37,-106.68 147.96,-108.34 152.56,-109.95"/>
<polygon fill="#63b8ff" stroke="#63b8ff" points="151.19,-113.18 161.79,-113.1 153.45,-106.56 151.19,-113.18"/>
</a>
</g>
</g>
<!-- Node3 -->
<g id="Node000003" class="node">
<title>Node3</title>
<g id="a_Node000003"><a xlink:href="group__mpu9250__basic__driver.html#ga6d1db8c9e247280524e95238a06f5453" target="_top" xlink:title="get the chip interface">
<polygon fill="white" stroke="#666666" points="256.25,-96 139,-96 139,-76 256.25,-76 256.25,-96"/>
<text xml:space="preserve" text-anchor="middle" x="197.62" y="-82.5" font-family="Helvetica,sans-Serif" font-size="10.00">mpu9250_get_interface</text>
</a>
</g>
</g>
<!-- Node1&#45;&gt;Node3 -->
<g id="edge2_Node000001_Node000003" class="edge">
<title>Node1&#45;&gt;Node3</title>
<g id="a_edge2_Node000001_Node000003"><a xlink:title=" ">
<path fill="none" stroke="#63b8ff" d="M103.31,-73.7C111.22,-74.74 119.51,-75.83 127.74,-76.92"/>
<polygon fill="#63b8ff" stroke="#63b8ff" points="127.02,-80.35 137.39,-78.19 127.94,-73.41 127.02,-80.35"/>
</a>
</g>
</g>
<!-- Node4 -->
<g id="Node000004" class="node">
<title>Node4</title>
<g id="a_Node000004"><a xlink:href="group__mpu9250__magnetometer__driver.html#gadfaea459024eaec362f46be757f9a2c7" target="_top" xlink:title="magnetometer deinit">
<polygon fill="white" stroke="#666666" points="251.75,-58 143.5,-58 143.5,-38 251.75,-38 251.75,-58"/>
<text xml:space="preserve" text-anchor="middle" x="197.62" y="-44.5" font-family="Helvetica,sans-Serif" font-size="10.00">mpu9250_mag_deinit</text>
</a>
</g>
</g>
<!-- Node1&#45;&gt;Node4 -->
<g id="edge3_Node000001_Node000004" class="edge">
<title>Node1&#45;&gt;Node4</title>
<g id="a_edge3_Node000001_Node000004"><a xlink:title=" ">
<path fill="none" stroke="#63b8ff" d="M103.31,-60.3C112.63,-59.07 122.47,-57.78 132.13,-56.5"/>
<polygon fill="#63b8ff" stroke="#63b8ff" points="132.38,-60 141.84,-55.22 131.47,-53.06 132.38,-60"/>
</a>
</g>
</g>
<!-- Node5 -->
<g id="Node000005" class="node">
<title>Node5</title>
<g id="a_Node000005"><a xlink:href="group__mpu9250__basic__driver.html#gac255f046ade796f75489d130e9270690" target="_top" xlink:title="enable or disable fifo">
<polygon fill="white" stroke="#666666" points="244.25,-20 151,-20 151,0 244.25,0 244.25,-20"/>
<text xml:space="preserve" text-anchor="middle" x="197.62" y="-6.5" font-family="Helvetica,sans-Serif" font-size="10.00">mpu9250_set_fifo</text>
</a>
</g>
</g>
<!-- Node1&#45;&gt;Node5 -->
<g id="edge4_Node000001_Node000005" class="edge">
<title>Node1&#45;&gt;Node5</title>
<g id="a_edge4_Node000001_Node000005"><a xlink:title=" ">
<path fill="none" stroke="#63b8ff" d="M74.66,-56.57C91.99,-48.58 116.79,-37.52 139,-29 143.37,-27.32 147.96,-25.66 152.56,-24.05"/>
<polygon fill="#63b8ff" stroke="#63b8ff" points="153.45,-27.44 161.79,-20.9 151.19,-20.82 153.45,-27.44"/>
</a>
</g>
</g>
</g>
</svg>
